<svg width="49" height="50" viewBox="0 0 49 50" fill="none" xmlns="http://www.w3.org/2000/svg">
<g opacity="0.5">
<path fill-rule="evenodd" clip-rule="evenodd" d="M19.4059 6.05659L15.9687 4.51553L15.2613 0.878418L12.7491 3.58475L9.02408 3.05528L10.916 6.25987L9.31321 9.56069L12.9942 8.84677L15.7402 11.4187L16.1166 7.76334L19.4059 6.05659Z" fill="#CDCECE"/>
<path fill-rule="evenodd" clip-rule="evenodd" d="M43.61 30.3061L44.2436 32.2086L42.9743 33.8702L45.0534 33.7946L46.2211 35.4201L46.8658 33.4715L48.856 32.8211L47.1805 31.6881L47.2395 29.6552L45.5578 30.9097L43.61 30.3061Z" fill="#CDCECE"/>
<path fill-rule="evenodd" clip-rule="evenodd" d="M11.5086 37.9683L7.48967 39.8795L3.67779 37.6686L4.186 42.072L0.855957 45.0379L5.18653 45.8343L6.92604 49.8784L9.1045 45.9771L13.5207 45.5019L10.5229 42.2929L11.5086 37.9683Z" fill="#CDCECE"/>
<path fill-rule="evenodd" clip-rule="evenodd" d="M44.6441 19.7416L33.0107 18.0578L27.7811 7.49916L22.5515 18.0578L10.9181 19.7416L19.3338 27.9166L17.3419 39.4951L27.7811 34.0259L38.2203 39.4951L36.2284 27.9166L44.6441 19.7416Z" fill="#A0A2A3"/>
</g>
</svg>
