<svg width="24" height="24" viewBox="0 0 24 24" fill="none" xmlns="http://www.w3.org/2000/svg">
<path d="M20.3708 5.04336L22.7071 2.70706L21.2929 1.29285L18.9566 3.62915C15.79 1.15915 11.2054 1.38042 8.2929 4.29292L3.00005 9.58577L1.70712 8.29285L0.292908 9.70706L4.58582 14L4.29289 14.2929C2.7978 15.788 2.7978 18.212 4.29289 19.7071C5.78799 21.2022 8.21201 21.2022 9.70711 19.7071L10 19.4142L14.2929 23.7071L15.7071 22.2928L14.4143 21L19.7071 15.7071C22.6196 12.7946 22.8409 8.20992 20.3708 5.04336ZM5.70711 15.7071L6.00003 15.4142L8.58582 18L8.29289 18.2929C7.57885 19.0069 6.42115 19.0069 5.70711 18.2929C4.99306 17.5788 4.99306 16.4212 5.70711 15.7071ZM9.70711 5.70713C12.078 3.33623 15.922 3.33623 18.2929 5.70713C20.6638 8.07803 20.6638 11.922 18.2929 14.2929L13 19.5858L4.41426 11L9.70711 5.70713Z" fill="white"/>
</svg>
